<svg xmlns="http://www.w3.org/2000/svg" width="49.948" height="48.039" viewBox="0 0 49.948 48.039">
  <g id="chatbot" transform="translate(-113.303 -150.148)">
    <g id="Group_48" data-name="Group 48" transform="translate(113.303 150.148)">
      <path id="Path_46" data-name="Path 46" d="M172.724,303.36a7.871,7.871,0,0,1-1.653-2.422A7.546,7.546,0,0,1,176.3,290.5a7.168,7.168,0,0,1,1.942-.211C179.741,298.881,172.724,303.36,172.724,303.36Z" transform="translate(-165.534 -275.1)" fill="#60bbea"/>
      <path id="Path_47" data-name="Path 47" d="M175.453,303.36a7.87,7.87,0,0,1-1.653-2.422c.884-1.538,1.769-3.172,2.634-4.9.961-1.9,1.826-3.768,2.576-5.537a7.168,7.168,0,0,1,1.942-.211C179.125,294.613,177.3,299,175.453,303.36Z" transform="translate(-168.263 -275.1)" fill="#5faddd"/>
      <path id="Path_48" data-name="Path 48" d="M223.326,276.6c-.769,10.785-25.492,14.341-37.065,7.824-3.21-1.807-5.4-4.4-5.787-7.824-1.769-15.764,8.67-30.2,20.647-30.2a21.36,21.36,0,0,1,13.688,5.344C220.211,256.474,224.191,264.509,223.326,276.6Z" transform="translate(-173.496 -239.652)" fill="#60bbea"/>
      <path id="Path_49" data-name="Path 49" d="M154.795,248.341a11.1,11.1,0,0,1-3.806-3.845c-1.5-2.442-2.884-6.671-.98-13l1.115.327c-1.423,4.71-1.134,8.747.827,12a9.967,9.967,0,0,0,3.4,3.48Z" transform="translate(-148.297 -227.617)" fill="#60bbea"/>
      <circle id="Ellipse_42" data-name="Ellipse 42" cx="2.711" cy="2.711" r="2.711" transform="translate(0)" fill="#2a5082"/>
      <path id="Path_50" data-name="Path 50" d="M241.236,318.378c0,2.172-2.384,3.5-5.441,4.287a41.355,41.355,0,0,1-9.977,1.038c-3.979-.038-11.631-.731-14.4-3.249a2.778,2.778,0,0,1-1.019-2.076,8.351,8.351,0,0,1,2.557-6,8.818,8.818,0,0,1,6.171-2.48h13.4a8.768,8.768,0,0,1,6.882,3.287A8.2,8.2,0,0,1,241.236,318.378Z" transform="translate(-197.827 -290.945)" fill="#2a5082"/>
      <path id="Path_51" data-name="Path 51" d="M245.517,332.11c0,2.172-2.384,3.5-5.441,4.287a41.359,41.359,0,0,1-9.977,1.038c-3.979-.038-11.631-.731-14.4-3.249,7.863-.231,21.243-1.519,27.991-7.286A8.3,8.3,0,0,1,245.517,332.11Z" transform="translate(-202.108 -304.677)" fill="#34497b"/>
      <path id="Path_52" data-name="Path 52" d="M255.408,402.314a9.37,9.37,0,0,1-5.96-2.057c-2.576-2.076-3.383-5.018-2.557-5.075,1.288-.1,4.345,1.442,7.805,1.442,3.96,0,6.671-1,8.709-1.077h.269C265.75,395.528,263.213,402.314,255.408,402.314Z" transform="translate(-227.052 -359.828)" fill="#2a5082"/>
      <path id="Path_53" data-name="Path 53" d="M248.465,299.057c-.769,10.785-25.492,14.341-37.065,7.824,7.075,1.173,28.106,3.749,31.874-6.383,3.249-8.709-.769-20.339-3.345-26.3C245.35,278.929,249.33,286.965,248.465,299.057Z" transform="translate(-198.635 -262.108)" fill="#5faddd"/>
      <path id="Path_54" data-name="Path 54" d="M216.4,264.865c.634.846,4.575-.923,7.209-2.864,2.538-1.865,5.114-4.787,4.537-5.633-.5-.731-3.4.308-5.229,1.288C218.837,259.828,215.7,263.942,216.4,264.865Z" transform="translate(-202.593 -247.505)" fill="#b6e2e6"/>
      <path id="Path_55" data-name="Path 55" d="M186.985,372.341c.1,2.884,1.846,5.613,2.557,5.421.75-.192.442-3.633.1-5.517-.1-.538-.711-3.864-1.48-3.845C187.561,368.4,186.927,370.476,186.985,372.341Z" transform="translate(-178.91 -338.198)" fill="#b6e2e6"/>
      <g id="Group_45" data-name="Group 45" transform="translate(32.22 21.032)">
        <g id="Group_44" data-name="Group 44">
          <path id="Path_56" data-name="Path 56" d="M323.805,328.183a3.909,3.909,0,0,1-7.555,1.4A3.686,3.686,0,0,1,316,328.2a3.9,3.9,0,0,1,7.459-1.6A3.794,3.794,0,0,1,323.805,328.183Z" transform="translate(-315.346 -323.608)" fill="#393861"/>
          <path id="Path_57" data-name="Path 57" d="M317.156,321.373a3.9,3.9,0,0,1,3.557,2.307,3.954,3.954,0,0,1,.346,1.6,3.909,3.909,0,0,1-7.555,1.4,3.685,3.685,0,0,1-.25-1.384,3.91,3.91,0,0,1,3.9-3.922Zm0-.673a4.566,4.566,0,0,0-4.556,4.556,4.329,4.329,0,0,0,.308,1.634,4.561,4.561,0,0,0,8.824-1.615,4.4,4.4,0,0,0-.4-1.865,4.572,4.572,0,0,0-4.172-2.711Z" transform="translate(-312.6 -320.7)" fill="#47aed2"/>
        </g>
        <path id="Path_58" data-name="Path 58" d="M323.459,326.488c-1.461,3.518-5.056,3.422-7.19,3A4.121,4.121,0,0,1,316,328.1a3.9,3.9,0,0,1,7.459-1.615Z" transform="translate(-315.346 -323.527)" fill="#304673"/>
        <circle id="Ellipse_43" data-name="Ellipse 43" cx="1.288" cy="1.288" r="1.288" transform="translate(1.807 1.999)" fill="#b6e2e6"/>
        <path id="Path_59" data-name="Path 59" d="M339.355,348.353c.211.135-.077,1.5-1.038,2.019-.865.461-2,.115-2.019-.135-.019-.192.577-.231,1.557-.827C338.893,348.8,339.2,348.257,339.355,348.353Z" transform="translate(-331.742 -343.028)" fill="#b6e2e6"/>
      </g>
      <g id="Group_47" data-name="Group 47" transform="translate(14.937 21.032)">
        <g id="Group_46" data-name="Group 46">
          <path id="Path_60" data-name="Path 60" d="M233.805,328.183a3.909,3.909,0,0,1-7.555,1.4A3.686,3.686,0,0,1,226,328.2a3.9,3.9,0,0,1,7.459-1.6A3.516,3.516,0,0,1,233.805,328.183Z" transform="translate(-225.366 -323.608)" fill="#393861"/>
          <path id="Path_61" data-name="Path 61" d="M227.256,321.373a3.9,3.9,0,0,1,3.557,2.307,3.955,3.955,0,0,1,.346,1.6,3.909,3.909,0,0,1-7.555,1.4,3.686,3.686,0,0,1-.25-1.384,3.9,3.9,0,0,1,3.9-3.922Zm0-.673a4.566,4.566,0,0,0-4.556,4.556,4.329,4.329,0,0,0,.308,1.634,4.561,4.561,0,0,0,8.824-1.615,4.4,4.4,0,0,0-.4-1.865,4.593,4.593,0,0,0-4.172-2.711Z" transform="translate(-222.7 -320.7)" fill="#47aed2"/>
        </g>
        <path id="Path_62" data-name="Path 62" d="M233.459,326.488c-1.461,3.518-5.056,3.422-7.19,3A4.12,4.12,0,0,1,226,328.1a3.9,3.9,0,0,1,7.459-1.615Z" transform="translate(-225.366 -323.527)" fill="#304673"/>
        <circle id="Ellipse_44" data-name="Ellipse 44" cx="1.288" cy="1.288" r="1.288" transform="translate(1.788 1.98)" fill="#b6e2e6"/>
        <path id="Path_63" data-name="Path 63" d="M249.455,348.353c.211.135-.077,1.5-1.038,2.019-.865.461-2,.115-2.019-.135-.019-.192.577-.231,1.557-.827C248.974,348.8,249.3,348.257,249.455,348.353Z" transform="translate(-241.842 -343.028)" fill="#b6e2e6"/>
      </g>
      <path id="Path_64" data-name="Path 64" d="M258.23,313.775c.038.25-1.711.865-3.537,1.038-2.941.269-5.633-.654-5.594-.98.019-.154,1.884-.173,5.594-.192C257.692,313.6,258.211,313.641,258.23,313.775Z" transform="translate(-229.086 -293.955)" fill="#336bb4"/>
      <circle id="Ellipse_45" data-name="Ellipse 45" cx="1.461" cy="1.461" r="1.461" transform="translate(0.486 1.042) rotate(-18.089)" fill="#336bb4"/>
      <path id="Path_65" data-name="Path 65" d="M267.46,403.786a9.369,9.369,0,0,1-5.96-2.057c3.46-.461,10.227-1.692,13.938-4.729h.269C277.8,397,275.265,403.786,267.46,403.786Z" transform="translate(-239.104 -361.3)" fill="#34497b"/>
    </g>
  </g>
</svg>
