<svg xmlns="http://www.w3.org/2000/svg" width="253" height="127" viewBox="0 0 253 127">
  <g id="Component_1_1" data-name="Component 1 – 1" transform="translate(0 15)">
    <g id="Group_93" data-name="Group 93" transform="translate(-1010 -663)">
      <rect id="Rectangle_93" data-name="Rectangle 93" width="171" height="37" rx="18.5" transform="translate(1010 696)" fill="#fff"/>
      <text id="Hey_I_m_Alphius" data-name="Hey! I&apos;m Alphius" transform="translate(1027 721)" fill="#707070" font-size="14" font-family="Poppins-Regular, Poppins"><tspan x="0" y="0">Hey! I&apos;m Alphius</tspan></text>
    </g>
    <circle id="Ellipse_75" data-name="Ellipse 75" cx="48.5" cy="48.5" r="48.5" transform="translate(141)" fill="#07abff" opacity="0.42"/>
    <g id="Ellipse_76" data-name="Ellipse 76" transform="translate(141)" fill="#fff" stroke="rgba(7,171,255,0.4)" stroke-width="1">
      <circle cx="48.5" cy="48.5" r="48.5" stroke="none"/>
      <circle cx="48.5" cy="48.5" r="48" fill="none"/>
    </g>
    <g id="chatbot" transform="translate(48.697 -128.148)">
      <g id="Group_16" data-name="Group 16" transform="translate(113.303 150.148)">
        <path id="Path_24" data-name="Path 24" d="M172.957,304.683a8.666,8.666,0,0,1-1.82-2.667,8.309,8.309,0,0,1,5.758-11.495,7.893,7.893,0,0,1,2.138-.233C180.684,299.75,172.957,304.683,172.957,304.683Z" transform="translate(-165.04 -273.565)" fill="#60bbea"/>
        <path id="Path_25" data-name="Path 25" d="M175.62,304.683a8.665,8.665,0,0,1-1.82-2.667c.974-1.694,1.947-3.493,2.9-5.4,1.058-2.1,2.011-4.149,2.837-6.1a7.893,7.893,0,0,1,2.138-.233C179.664,295.051,177.653,299.877,175.62,304.683Z" transform="translate(-167.703 -273.565)" fill="#5faddd"/>
        <path id="Path_26" data-name="Path 26" d="M227.679,279.656c-.847,11.876-28.07,15.792-40.813,8.616-3.535-1.99-5.948-4.848-6.372-8.616C178.547,262.3,190.042,246.4,203.23,246.4a23.52,23.52,0,0,1,15.072,5.885C224.25,257.492,228.632,266.341,227.679,279.656Z" transform="translate(-172.81 -238.97)" fill="#60bbea"/>
        <path id="Path_27" data-name="Path 27" d="M155.373,250.044a12.216,12.216,0,0,1-4.191-4.234c-1.651-2.688-3.175-7.346-1.08-14.31l1.228.36c-1.566,5.186-1.249,9.632.91,13.209a10.975,10.975,0,0,0,3.747,3.831Z" transform="translate(-148.218 -227.224)" fill="#60bbea"/>
        <circle id="Ellipse_30" data-name="Ellipse 30" cx="2.985" cy="2.985" r="2.985" transform="translate(0)" fill="#2a5082"/>
        <path id="Path_28" data-name="Path 28" d="M244.354,319.235c0,2.392-2.625,3.853-5.991,4.721a45.539,45.539,0,0,1-10.986,1.143c-4.382-.042-12.807-.8-15.855-3.578a3.059,3.059,0,0,1-1.122-2.286,9.2,9.2,0,0,1,2.815-6.6,9.71,9.71,0,0,1,6.8-2.731h14.755a9.655,9.655,0,0,1,7.578,3.62A9.032,9.032,0,0,1,244.354,319.235Z" transform="translate(-196.556 -289.028)" fill="#2a5082"/>
        <path id="Path_29" data-name="Path 29" d="M248.533,332.637c0,2.392-2.625,3.853-5.991,4.721a45.539,45.539,0,0,1-10.987,1.143c-4.382-.042-12.807-.8-15.855-3.578,8.658-.254,23.391-1.672,30.822-8.023A9.135,9.135,0,0,1,248.533,332.637Z" transform="translate(-200.734 -302.429)" fill="#34497b"/>
        <path id="Path_30" data-name="Path 30" d="M256.3,403.036a10.317,10.317,0,0,1-6.562-2.265c-2.837-2.286-3.726-5.525-2.815-5.589,1.418-.106,4.784,1.588,8.594,1.588,4.361,0,7.346-1.1,9.589-1.185h.3C267.689,395.563,264.895,403.036,256.3,403.036Z" transform="translate(-225.077 -356.253)" fill="#2a5082"/>
        <path id="Path_31" data-name="Path 31" d="M252.213,301.571c-.847,11.876-28.07,15.792-40.813,8.616,7.79,1.291,30.949,4.128,35.1-7.028,3.577-9.589-.847-22.4-3.683-28.959C248.784,279.408,253.166,288.256,252.213,301.571Z" transform="translate(-197.344 -260.885)" fill="#5faddd"/>
        <path id="Path_32" data-name="Path 32" d="M216.406,265.749c.7.931,5.038-1.016,7.938-3.154,2.794-2.053,5.631-5.271,5-6.2-.55-.8-3.747.339-5.758,1.418C219.094,260.2,215.644,264.733,216.406,265.749Z" transform="translate(-201.207 -246.634)" fill="#b6e2e6"/>
        <path id="Path_33" data-name="Path 33" d="M186.985,372.739c.106,3.175,2.032,6.181,2.815,5.97.826-.212.487-4,.106-6.075-.106-.593-.783-4.255-1.63-4.234C187.62,368.4,186.921,370.686,186.985,372.739Z" transform="translate(-178.094 -335.144)" fill="#b6e2e6"/>
        <g id="Group_13" data-name="Group 13" transform="translate(35.479 23.158)">
          <g id="Group_12" data-name="Group 12">
            <path id="Path_34" data-name="Path 34" d="M324.594,328.576a4.3,4.3,0,0,1-8.319,1.545A4.06,4.06,0,0,1,316,328.6a4.294,4.294,0,0,1,8.213-1.757A4.178,4.178,0,0,1,324.594,328.576Z" transform="translate(-315.28 -323.538)" fill="#393861"/>
            <path id="Path_35" data-name="Path 35" d="M317.617,321.441a4.3,4.3,0,0,1,3.916,2.54,4.354,4.354,0,0,1,.381,1.757,4.3,4.3,0,0,1-8.319,1.545,4.058,4.058,0,0,1-.275-1.524,4.3,4.3,0,0,1,4.3-4.318Zm0-.741a5.028,5.028,0,0,0-5.017,5.017,4.766,4.766,0,0,0,.339,1.8,5.022,5.022,0,0,0,9.716-1.778,4.841,4.841,0,0,0-.445-2.053,5.034,5.034,0,0,0-4.594-2.985Z" transform="translate(-312.6 -320.7)" fill="#47aed2"/>
          </g>
          <path id="Path_36" data-name="Path 36" d="M324.213,326.719c-1.609,3.874-5.567,3.768-7.917,3.3a4.537,4.537,0,0,1-.3-1.524,4.3,4.3,0,0,1,8.213-1.778Z" transform="translate(-315.28 -323.459)" fill="#304673"/>
          <circle id="Ellipse_31" data-name="Ellipse 31" cx="1.418" cy="1.418" r="1.418" transform="translate(1.99 2.202)" fill="#b6e2e6"/>
          <path id="Path_37" data-name="Path 37" d="M339.664,348.354c.233.148-.085,1.651-1.143,2.223-.953.508-2.2.127-2.223-.148-.021-.212.635-.254,1.715-.91C339.156,348.841,339.495,348.248,339.664,348.354Z" transform="translate(-331.281 -342.49)" fill="#b6e2e6"/>
        </g>
        <g id="Group_15" data-name="Group 15" transform="translate(16.448 23.158)">
          <g id="Group_14" data-name="Group 14">
            <path id="Path_38" data-name="Path 38" d="M234.594,328.576a4.3,4.3,0,0,1-8.319,1.545A4.059,4.059,0,0,1,226,328.6a4.294,4.294,0,0,1,8.213-1.757A3.872,3.872,0,0,1,234.594,328.576Z" transform="translate(-225.301 -323.538)" fill="#393861"/>
            <path id="Path_39" data-name="Path 39" d="M227.717,321.441a4.3,4.3,0,0,1,3.916,2.54,4.355,4.355,0,0,1,.381,1.757,4.3,4.3,0,0,1-8.319,1.545,4.06,4.06,0,0,1-.275-1.524,4.291,4.291,0,0,1,4.3-4.318Zm0-.741a5.028,5.028,0,0,0-5.017,5.017,4.766,4.766,0,0,0,.339,1.8,5.022,5.022,0,0,0,9.716-1.778,4.841,4.841,0,0,0-.445-2.053,5.057,5.057,0,0,0-4.594-2.985Z" transform="translate(-222.7 -320.7)" fill="#47aed2"/>
          </g>
          <path id="Path_40" data-name="Path 40" d="M234.213,326.719c-1.609,3.874-5.567,3.768-7.917,3.3a4.536,4.536,0,0,1-.3-1.524,4.3,4.3,0,0,1,8.213-1.778Z" transform="translate(-225.301 -323.459)" fill="#304673"/>
          <circle id="Ellipse_32" data-name="Ellipse 32" cx="1.418" cy="1.418" r="1.418" transform="translate(1.969 2.18)" fill="#b6e2e6"/>
          <path id="Path_41" data-name="Path 41" d="M249.764,348.354c.233.148-.085,1.651-1.143,2.223-.953.508-2.2.127-2.223-.148-.021-.212.635-.254,1.715-.91C249.235,348.841,249.595,348.248,249.764,348.354Z" transform="translate(-241.381 -342.49)" fill="#b6e2e6"/>
        </g>
        <path id="Path_42" data-name="Path 42" d="M259.153,313.79c.042.275-1.884.953-3.9,1.143-3.239.3-6.2-.72-6.16-1.08.021-.169,2.075-.191,6.16-.212C258.561,313.6,259.132,313.642,259.153,313.79Z" transform="translate(-227.062 -291.965)" fill="#336bb4"/>
        <circle id="Ellipse_33" data-name="Ellipse 33" cx="1.609" cy="1.609" r="1.609" transform="translate(0.535 1.148) rotate(-18.089)" fill="#336bb4"/>
        <path id="Path_43" data-name="Path 43" d="M268.062,404.472a10.316,10.316,0,0,1-6.562-2.265c3.81-.508,11.262-1.863,15.347-5.207h.3C279.451,397,276.657,404.472,268.062,404.472Z" transform="translate(-236.839 -357.69)" fill="#34497b"/>
      </g>
    </g>
  </g>
</svg>
