<svg xmlns="http://www.w3.org/2000/svg" width="70" height="70" viewBox="0 0 70 70">
  <g id="Group_196" data-name="Group 196" transform="translate(-1016 -959)">
    <circle id="Ellipse_74" data-name="Ellipse 74" cx="35" cy="35" r="35" transform="translate(1016 959)" fill="#88dfc8"/>
    <g id="noun-capsule-1023149" transform="translate(881.835 941.396)">
      <path id="Path_111" data-name="Path 111" d="M163.515,33.6a9.393,9.393,0,0,0-8.167,14.124l5.512,9.461.013.041h0a.959.959,0,0,0,.054.081c.013.023.026.046.041.067l5.472,9.42a9.166,9.166,0,0,0,6.118,4.582,9.9,9.9,0,0,0,6.806-1.2,9.72,9.72,0,0,0,4.447-5.229,9.022,9.022,0,0,0-.943-7.547l-5.553-9.529h0c-.008-.018-.018-.036-.027-.054s-.026-.045-.04-.067l-5.471-9.42a9.583,9.583,0,0,0-8.261-4.73Zm0,1.725a7.852,7.852,0,0,1,6.765,3.881l5.081,8.733-13.382,7.749-5.135-8.827a7.669,7.669,0,0,1,6.671-11.537ZM176.237,49.44l5.148,8.827a7.2,7.2,0,0,1,.8,6.132,8.049,8.049,0,0,1-3.679,4.285,8.2,8.2,0,0,1-5.606,1,7.317,7.317,0,0,1-4.959-3.76l-5.081-8.746,13.382-7.736Z" fill="#fff" fill-rule="evenodd"/>
      <path id="Path_112" data-name="Path 112" d="M412.8,276.639a.863.863,0,0,0-.754,1.278c1.172,2.209,2.753,4.208,3.542,5.923a4.581,4.581,0,0,1,.523,2.275A2.961,2.961,0,0,1,415,288.1h0a.863.863,0,1,0,1.167,1.27,4.827,4.827,0,0,0,1.658-3.1,6.186,6.186,0,0,0-.673-3.156c-.931-2.024-2.52-4-3.586-6.01a.863.863,0,0,0-.77-.469Z" transform="translate(-238.005 -224.319)" fill="#fff" fill-rule="evenodd"/>
    </g>
  </g>
</svg>
