<svg xmlns="http://www.w3.org/2000/svg" xmlns:xlink="http://www.w3.org/1999/xlink" width="36" height="36" viewBox="0 0 36 36">
  <defs>
    <clipPath id="clip-path">
      <rect id="Rectangle_44" data-name="Rectangle 44" width="36" height="36" transform="translate(275 394)" fill="#fff" stroke="#707070" stroke-width="1"/>
    </clipPath>
  </defs>
  <g id="Mask_Group_2" data-name="Mask Group 2" transform="translate(-275 -394)" clip-path="url(#clip-path)">
    <g id="noun-send-1015121" transform="translate(172.469 368.183)">
      <path id="Path_45" data-name="Path 45" d="M130.522,32.965a.64.64,0,0,0-.012-.157c0-.008-.005-.016-.007-.024a.626.626,0,0,0-.048-.128l-.019-.037a.628.628,0,0,0-.1-.131.642.642,0,0,0-.131-.1l-.036-.019a.654.654,0,0,0-.127-.047l-.026-.008a.645.645,0,0,0-.155-.012l-.041,0a.634.634,0,0,0-.133.029c-.007,0-.013,0-.02,0L102.7,42.167a.639.639,0,0,0,0,1.2L115,47.831l4.463,12.3a.638.638,0,0,0,.6.42h0a.638.638,0,0,0,.6-.42l9.828-26.972c0-.006,0-.013,0-.019a.64.64,0,0,0,.029-.136c0-.012,0-.025,0-.037Zm-25.739,9.8,22.613-8.24L115.329,46.593Zm15.276,15.276L116.232,47.5,128.3,35.429Z" transform="translate(4.35 -2.65)" fill="#707070"/>
    </g>
  </g>
</svg>
